<?xml version="1.0" encoding="utf-8"?>
<!-- Generator: Adobe Illustrator 17.0.0, SVG Export Plug-In . SVG Version: 6.00 Build 0)  -->
<!DOCTYPE svg PUBLIC "-//W3C//DTD SVG 1.1//EN" "http://www.w3.org/Graphics/SVG/1.1/DTD/svg11.dtd">
<svg version="1.1" id="Capa_1" xmlns="http://www.w3.org/2000/svg" xmlns:xlink="http://www.w3.org/1999/xlink" x="0px" y="0px"
	 width="52px" height="52px" viewBox="0 0 52 52" enable-background="new 0 0 52 52" xml:space="preserve">
<path d="M42.643,39.133c-0.518-0.976-1.128-1.061-1.128,0.043c0,1.143,0.692,1.949,2.114,2.741c0.451,0.25,1.053,0.406,1.068,1.041
	c0.015,0.547-0.47,0.814-0.902,0.962c-2.456,0.846-4.637,2.14-6.764,3.632c-1.566,1.099-3.312,0.263-3.355-1.49
	c-0.066-2.625,0.13-5.254-0.321-7.865c-0.087-0.497-0.047-1.14,0.596-1.313c0.584-0.159,0.782,0.402,1.012,0.788
	c0.783,1.321,1.948,1.623,3.322,1.198c1.897-0.584,3.988-3.592,3.754-5.58c-0.438-3.726-1.547-7.286-4.088-10.099
	c-0.723-0.8-1.408-1.669-1.962-2.594c-0.157-0.263-0.293-0.532-0.435-0.8c-0.688-1.278-1.385-3.115-1.561-4.407
	c-0.174-1.017-0.149-4.493-0.778-6.41c-0.601-1.705-1.736-3.389-3.354-4.267c-1.154-0.627-2.508-1.062-3.824-1.117
	c-0.737-0.031-1.532,0.041-2.25,0.22c-2.591,0.644-4.202,2.746-4.511,5.999c-0.088,0.927-0.089,1.879,0.024,2.801
	c0.524,4.325,0.071,8.196-3.156,11.68c-2.248,2.427-2.735,6.02-4.08,9.058c-0.486,1.099-0.431,2.398,1.495,2.232
	c0.605-0.053,1.074,0.445,1.464,0.88c2.078,2.327,3.779,4.914,5.142,7.711c0.487,1.001,0.826,2.155-0.018,3.152
	c-0.787,0.932-1.925,0.811-2.949,0.587c-2.627-0.572-5.232-1.236-7.846-1.87c-1.164-0.282-1.535-0.949-1.016-2.078
	c0.302-0.655,0.439-1.36,0.113-2.042c-0.735-1.533-0.257-2.23,1.416-2.438c0.794-0.099,1.43-0.393,1.786-1.004
	c0.555-0.955-0.189-1.124-1.125-0.537c-0.659,0.413-1.381,0.589-2.178,0.661c-1.154,0.104-1.525,0.914-1.305,2.037
	c0.225,1.139,0.424,2.24-0.014,3.437c-0.673,1.828-0.222,2.612,1.714,3.02c0.979,0.206,9.273,2.384,9.429,2.451
	c1.472,0.641,4.59-3.453,5.73-3.453c0.082,0,0.164,0,0.245,0c2.059,0,4.285,0.668,6.249,0.654c0.744-0.006,1.318,0.63,1.851,1.177
	c1.83,1.867,4.048,2.142,6.044,0.439c1.391-1.186,2.877-2.109,4.541-2.871c0.077-0.035,0.154-0.061,0.23-0.087
	c0.128-0.044,0.985-0.585,1.762-1.37c0.9-0.909,1.24-1.755,0.316-2.346C44.081,41.018,43.222,40.224,42.643,39.133z M22.731,43.682
	c-0.256-0.114-1.816-0.562-1.288-1.189c0.902-1.072,0.592-2.063-0.342-2.941c-0.645-0.607-2.275-2.03-3.373-3.294
	c-0.725-0.834-1.507-2.471-1.709-3.557c-0.39-2.103-0.1-4.525-0.1-4.525c0.039-0.238,0.122-0.351,0.216-0.396
	c0.234-0.111,0.194,0.994,0.27,2.096c0.008,0.111,0.018,0.221,0.03,0.329c0.126,1.097,0.62,1.052,0.921-0.011
	c0.461-1.63,1.128-3.198,1.975-4.758c0.686-1.266,0.505-3.035,1.321-4.45c0.478-0.827,0.775-1.104,1.43-0.223
	c0.969,1.302,2.101,1.267,3.354,0.388c0.91-0.637,1.869-1.2,2.796-1.813c0.365-0.239,1.018-0.445,0.675-1.004
	c-0.308-0.498-0.845-0.118-1.259,0.068c-0.726,0.327-1.42,0.762-2.235,1.023c-1.052,0.336-1.143-0.14-0.115-0.545
	c1.14-0.449,2.192-0.863,3.24-1.286c0.373-0.151,0.902-0.385,0.657-0.846c-0.28-0.527-0.697-0.051-1.038,0.112
	c-1.492,0.709-3.034,1.228-4.711,1.208c-1.059-0.014-1.89-0.574-2.155-1.503c-0.258-0.907,0.816-1.096,1.332-1.6
	c0.185-0.181,0.37-0.341,0.555-0.474c0.328-0.235,0.627-0.409,0.622-0.492c-0.005-0.085,0-0.149,0-0.149
	c0.087-0.655,0.066-1.135-0.014-1.487c-0.184-0.805-1.756-1.11-2.243-0.51c-0.426,0.525-0.426,1.31-0.426,1.31
	c0.023,0.3-0.05,0.46-0.158,0.542c-0.26,0.195-0.604-0.912-0.271-1.965c0.368-1.162,1.02-1.343,1.733-1.343
	c2.614-0.001,2.391,3.625,2.308,3.695c-0.009,0.008-0.017,0.012-0.024,0.017c-0.014,0.008,0.26,0.09,0.555,0.286
	c0.296,0.197,0.598-0.012,0.64-0.546c0.025-0.323,0.036-0.652,0.059-0.969c0.019-2.124,1.219-2.605,2.126-2.483
	c2.679,0.359,2.348,3.625,2.265,3.695c-0.292,0.243-0.493,0.329-0.631,0.328c-0.4-0.002-0.261-0.732-0.232-0.936
	c0.019-0.13,0.031-0.251,0.042-0.37c0.001-0.224-0.007-0.458-0.035-0.69c-0.047-0.378-0.264-0.885-0.496-1.042
	c-0.232-0.157-1.299-0.291-1.792,0.375c-0.493,0.666-0.485,1.784-0.443,2.246c0.029,0.315,0.106,0.613,0.316,0.749
	c0.439,0.284,0.912,0.547,1.408,0.704c0.995,0.316,1.458,0.854,1.178,1.955c-0.224,0.881-0.017,1.728,0.444,2.527
	c1.56,2.717,3.319,7.662,4.081,11.179c0.234,1.08,0.604,1.722,0.827,1.336c0.223-0.386,0.509-1.619,0.565-2.722
	c0.066-1.29-0.014-3-0.649-4.477c-0.436-1.015-0.305-1.175,0.319-0.264c0.702,1.024,1.361,2.68,1.147,5.188
	c-0.094,1.101,0.047,2.325,0.5,2.759s0.1,0.374-0.832,0.489s-1.505,0.966-1.575,1.248c-0.053,0.215-0.137,0.369-0.258,0.443
	c-2.247,1.354-1.944,3.345-1.77,5.39c0.052,0.565-1.229,1.42-1.427,1.626C28.631,44.616,25.856,45.067,22.731,43.682z
	 M23.433,12.372c0.27,0.565,0.024,0.649-0.209,0.117S23.162,11.807,23.433,12.372z M28.749,12.125
	c-0.336-0.46-0.111-0.691,0.283-0.208C29.425,12.399,29.085,12.584,28.749,12.125z"/>
</svg>
